<?xml version="1.0" encoding="UTF-8" standalone="no"?>
<svg
   xmlns:dc="http://purl.org/dc/elements/1.1/"
   xmlns:cc="http://creativecommons.org/ns#"
   xmlns:rdf="http://www.w3.org/1999/02/22-rdf-syntax-ns#"
   xmlns:svg="http://www.w3.org/2000/svg"
   xmlns="http://www.w3.org/2000/svg"
   id="svg849"
   version="1.1"
   viewBox="0 0 5.0270832 5.0270835"
   height="19"
   width="19">
  <defs
     id="defs843" />
  <metadata
     id="metadata846">
    <rdf:RDF>
      <cc:Work
         rdf:about="">
        <dc:format>image/svg+xml</dc:format>
        <dc:type
           rdf:resource="http://purl.org/dc/dcmitype/StillImage" />
        <dc:title></dc:title>
      </cc:Work>
    </rdf:RDF>
  </metadata>
  <g
     id="layer1">
    <path
       style="fill:none;stroke:#000000;stroke-width:0.185208;stroke-linecap:round;stroke-linejoin:miter;stroke-miterlimit:4;stroke-dasharray:none;stroke-opacity:1"
       d="m -6.9896796,0.12006596 c 0,0 1.8450957,-0.024964 1.9855192,0.080516 0.1404234,0.1054795 0.8594732,1.29480524 0.8174137,2.01909134 -0.050298,0.8661508 -0.7245228,2.182519 -0.8415423,2.2720038 -0.1170195,0.089485 -1.9613906,0.1318138 -1.9613906,0.1318138 0,0 0.4452874,-0.6215753 0.5459646,-0.9824469 0.1264581,-0.4532823 0.058183,-1.0206237 0.052093,-1.4108132 -0.00444,-0.2840791 0.1275701,-0.7813251 0.022657,-1.1501524 C -6.4732243,0.71355106 -6.9896796,0.12006596 -6.9896796,0.12006596 Z"
       id="path1418-6" />
    <path
       style="fill:none;stroke:#000000;stroke-width:0.132292;stroke-linecap:butt;stroke-linejoin:miter;stroke-miterlimit:4;stroke-dasharray:none;stroke-opacity:1"
       d="M -4.1832905,2.245323 H -6.4622529"
       id="path1420-7" />
    <path
       style="fill:none;stroke:#000000;stroke-width:0.079375;stroke-linecap:butt;stroke-linejoin:miter;stroke-miterlimit:4;stroke-dasharray:none;stroke-opacity:1"
       d="M -4.5215634,0.95835956 H -6.3762271"
       id="path1422-5" />
    <path
       id="path1422-3-3"
       d="M -4.6277131,3.8103742 H -6.4823767"
       style="fill:none;stroke:#000000;stroke-width:0.079375;stroke-linecap:butt;stroke-linejoin:miter;stroke-miterlimit:4;stroke-dasharray:none;stroke-opacity:1" />
    <g
       transform="translate(0,0.08435017)"
       id="g1618">
      <path
         style="color:#000000;font-style:normal;font-variant:normal;font-weight:normal;font-stretch:normal;font-size:medium;line-height:normal;font-family:sans-serif;font-variant-ligatures:normal;font-variant-position:normal;font-variant-caps:normal;font-variant-numeric:normal;font-variant-alternates:normal;font-variant-east-asian:normal;font-feature-settings:normal;font-variation-settings:normal;text-indent:0;text-align:start;text-decoration:none;text-decoration-line:none;text-decoration-style:solid;text-decoration-color:#000000;letter-spacing:normal;word-spacing:normal;text-transform:none;writing-mode:lr-tb;direction:ltr;text-orientation:mixed;dominant-baseline:auto;baseline-shift:baseline;text-anchor:start;white-space:normal;shape-padding:0;shape-margin:0;inline-size:0;clip-rule:nonzero;display:inline;overflow:visible;visibility:visible;opacity:1;isolation:auto;mix-blend-mode:normal;color-interpolation:sRGB;color-interpolation-filters:linearRGB;solid-color:#000000;solid-opacity:1;vector-effect:none;fill:#000000;fill-opacity:1;fill-rule:nonzero;stroke:none;stroke-width:5.82083;stroke-linecap:butt;stroke-linejoin:miter;stroke-miterlimit:4;stroke-dasharray:none;stroke-dashoffset:0;stroke-opacity:1;color-rendering:auto;image-rendering:auto;shape-rendering:auto;text-rendering:auto;enable-background:accumulate;stop-color:#000000;stop-opacity:1"
         d="m 1.671875,2.3183594 0.00658,0.09926 c 0,0 0.3299617,-0.00857 0.7461106,0.00438 0.6251151,0.01946 1.4215128,0.021813 1.4758525,0.2224577 0.010519,0.038842 0.101499,-0.1858778 0.095817,-0.1589966 -0.00454,0.021468 0.020446,-0.308551 0.020446,-0.308551 2.56e-4,0.020034 -0.1254584,-0.079146 -0.1319773,-0.035544 -0.02633,0.1761069 -0.831126,0.1731932 -1.4620122,0.1983996 -0.4139387,0.016538 -0.7508161,0.017408 -0.7508161,0.017408 z"
         id="path1465" />
      <path
         style="color:#000000;font-style:normal;font-variant:normal;font-weight:normal;font-stretch:normal;font-size:medium;line-height:normal;font-family:sans-serif;font-variant-ligatures:normal;font-variant-position:normal;font-variant-caps:normal;font-variant-numeric:normal;font-variant-alternates:normal;font-variant-east-asian:normal;font-feature-settings:normal;font-variation-settings:normal;text-indent:0;text-align:start;text-decoration:none;text-decoration-line:none;text-decoration-style:solid;text-decoration-color:#000000;letter-spacing:normal;word-spacing:normal;text-transform:none;writing-mode:lr-tb;direction:ltr;text-orientation:mixed;dominant-baseline:auto;baseline-shift:baseline;text-anchor:start;white-space:normal;shape-padding:0;shape-margin:0;inline-size:0;clip-rule:nonzero;display:inline;overflow:visible;visibility:visible;opacity:1;isolation:auto;mix-blend-mode:normal;color-interpolation:sRGB;color-interpolation-filters:linearRGB;solid-color:#000000;solid-opacity:1;vector-effect:none;fill:#000000;fill-opacity:1;fill-rule:nonzero;stroke:none;stroke-width:0.079375;stroke-linecap:butt;stroke-linejoin:miter;stroke-miterlimit:4;stroke-dasharray:none;stroke-dashoffset:0;stroke-opacity:1;color-rendering:auto;image-rendering:auto;shape-rendering:auto;text-rendering:auto;enable-background:accumulate;stop-color:#000000;stop-opacity:1"
         d="m 1.7567941,1.0673347 -0.043016,0.036969 c 0,0 0.3804638,-0.00845 0.77036,-0.022805 0.4318496,-0.015896 0.9292907,7.361e-4 1.1078371,0.1414583 0.023256,0.018329 0.021306,-0.086238 0.021306,-0.086238 V 1.056641 c 0,0 -0.083881,-0.16417011 -0.1504679,-0.14429245 -0.062879,0.0187707 -0.5477219,0.0588416 -0.9843701,0.0920034 -0.3784139,0.028739 -0.7216495,0.062983 -0.7216491,0.062983 z"
         id="path1469" />
      <path
         id="path1469-6"
         d="m 1.7567223,3.7586853 -0.043016,-0.036969 c 0,0 0.3804638,0.00845 0.77036,0.022805 0.4318496,0.015896 0.9292907,-7.36e-4 1.1078371,-0.1414583 0.023256,-0.018329 0.021306,0.086238 0.021306,0.086238 v 0.080078 c 0,0 -0.083881,0.1641702 -0.1504679,0.1442925 C 3.3998625,3.8949005 2.9150195,3.8548295 2.4783713,3.8216685 2.0999574,3.7929295 1.7567218,3.7586855 1.7567223,3.7586853 Z"
         style="color:#000000;font-style:normal;font-variant:normal;font-weight:normal;font-stretch:normal;font-size:medium;line-height:normal;font-family:sans-serif;font-variant-ligatures:normal;font-variant-position:normal;font-variant-caps:normal;font-variant-numeric:normal;font-variant-alternates:normal;font-variant-east-asian:normal;font-feature-settings:normal;font-variation-settings:normal;text-indent:0;text-align:start;text-decoration:none;text-decoration-line:none;text-decoration-style:solid;text-decoration-color:#000000;letter-spacing:normal;word-spacing:normal;text-transform:none;writing-mode:lr-tb;direction:ltr;text-orientation:mixed;dominant-baseline:auto;baseline-shift:baseline;text-anchor:start;white-space:normal;shape-padding:0;shape-margin:0;inline-size:0;clip-rule:nonzero;display:inline;overflow:visible;visibility:visible;opacity:1;isolation:auto;mix-blend-mode:normal;color-interpolation:sRGB;color-interpolation-filters:linearRGB;solid-color:#000000;solid-opacity:1;vector-effect:none;fill:#000000;fill-opacity:1;fill-rule:nonzero;stroke:none;stroke-width:0.079375;stroke-linecap:butt;stroke-linejoin:miter;stroke-miterlimit:4;stroke-dasharray:none;stroke-dashoffset:0;stroke-opacity:1;color-rendering:auto;image-rendering:auto;shape-rendering:auto;text-rendering:auto;enable-background:accumulate;stop-color:#000000;stop-opacity:1" />
      <path
         style="fill:none;stroke:#000000;stroke-width:0.15875;stroke-linecap:butt;stroke-linejoin:miter;stroke-miterlimit:4;stroke-dasharray:none;stroke-opacity:1"
         d="m 1.1193926,0.19287765 c 0,0 0.1176494,0.097785 0.2511079,0.25577536 0.1557742,0.18440799 0.334029,0.44385103 0.3862936,0.61868169 0.1234117,0.412825 -0.077358,0.8590278 -0.084919,1.2898384 -0.00799,0.4549913 0.1480387,0.9220493 0.041831,1.3645431 C 1.6216101,4.1054153 1.0710315,4.711901 1.0710315,4.711901"
         id="path1519" />
      <path
         id="path1525-2"
         style="color:#000000;font-style:normal;font-variant:normal;font-weight:normal;font-stretch:normal;font-size:medium;line-height:normal;font-family:sans-serif;font-variant-ligatures:normal;font-variant-position:normal;font-variant-caps:normal;font-variant-numeric:normal;font-variant-alternates:normal;font-variant-east-asian:normal;font-feature-settings:normal;font-variation-settings:normal;text-indent:0;text-align:start;text-decoration:none;text-decoration-line:none;text-decoration-style:solid;text-decoration-color:#000000;letter-spacing:normal;word-spacing:normal;text-transform:none;writing-mode:lr-tb;direction:ltr;text-orientation:mixed;dominant-baseline:auto;baseline-shift:baseline;text-anchor:start;white-space:normal;shape-padding:0;shape-margin:0;inline-size:0;clip-rule:nonzero;display:inline;overflow:visible;visibility:visible;opacity:1;isolation:auto;mix-blend-mode:normal;color-interpolation:sRGB;color-interpolation-filters:linearRGB;solid-color:#000000;solid-opacity:1;vector-effect:none;fill:#000000;fill-opacity:1;fill-rule:nonzero;stroke:none;stroke-width:0.275023px;stroke-linecap:butt;stroke-linejoin:miter;stroke-miterlimit:4;stroke-dasharray:none;stroke-dashoffset:0;stroke-opacity:1;color-rendering:auto;image-rendering:auto;shape-rendering:auto;text-rendering:auto;enable-background:accumulate;stop-color:#000000;stop-opacity:1"
         d="M 1.199667,0.1018668 C 1.138574,0.10231049 1.0841785,0.1061639 1.0841785,0.1061639 L 0.76940544,0.1034779 c 0,0 0.2213954,0.10673708 0.38406636,0.23043972 0.1513036,-0.0563074 0.00217,-0.0787493 0.071441,-0.0730531 0.1737738,-0.0467378 0.8707662,-0.0263315 1.8225688,0.17188978 0.046181,0.007858 0.081906,0.0307816 0.046733,0.004297 -0.00876,-0.006601 0.021515,0.0234279 0.052641,0.0649958 0.031127,0.041568 0.070457,0.0994883 0.1138771,0.16866683 C 3.3475737,0.80907211 3.4512282,0.99296988 3.5486484,1.1965894 3.743489,1.6038288 3.9065706,2.1074416 3.8875937,2.4341959 3.9065697,2.76095 3.743489,3.2651 3.5486484,3.6723393 3.4512284,3.8759587 3.3475696,4.0598566 3.2607331,4.1982146 3.2173101,4.2673926 3.1779771,4.3253135 3.146856,4.3668814 3.115735,4.4084494 3.085483,4.4384784 3.094215,4.4318764 3.12939,4.4053924 3.0936658,4.4277764 3.047482,4.4356364 2.0956788,4.633858 1.4366783,4.6810106 1.1909218,4.6275564 1.1216568,4.6332564 1.3047762,4.591318 1.1534722,4.53501 0.99080124,4.6587127 0.76940584,4.7654499 0.76940584,4.7654499 l 0.31477306,-0.00268 c 0,0 0.054395,0.00332 0.1154885,0.00376 0.1908592,0.00139 0.6553032,0.00253 1.0882773,-0.00806 0.2164873,-0.00529 0.4248329,-0.012952 0.5908709,-0.02632 0.083021,-0.00668 0.1555579,-0.013985 0.2153994,-0.024173 0.05984,-0.010187 0.09746,-0.00655 0.1643695,-0.056939 0.045253,-0.034067 0.069917,-0.069676 0.1074307,-0.1197765 0.037521,-0.0501 0.081348,-0.112854 0.1278431,-0.1869299 C 3.5868463,4.19617 3.6940565,4.0036207 3.7962768,3.7899768 4.0000052,3.3641613 4.1637992,2.9042248 4.1636913,2.436882 c -3e-7,-8.977e-4 1.4e-6,-0.00179 0,-0.00268 V 2.432052 C 4.1637936,1.9646996 4.0000072,1.5042355 3.7962768,1.0784156 3.694061,0.86477175 3.5868457,0.67275969 3.4938583,0.52460822 3.4473647,0.4505325 3.4035312,0.38777793 3.3660152,0.33767809 3.3284992,0.28757811 3.3038346,0.25196989 3.2585841,0.2178924 3.1916744,0.16750366 3.1540534,0.17114093 3.0942146,0.1609539 3.0343758,0.15076688 2.9618358,0.14346685 2.8788152,0.1367819 2.7127739,0.12341201 2.5044311,0.11575216 2.2879443,0.11046129 1.8549702,0.09987948 1.3905262,0.10048068 1.199667,0.1018668 Z" />
    </g>
    <path
       style="color:#000000;font-style:normal;font-variant:normal;font-weight:normal;font-stretch:normal;font-size:medium;line-height:normal;font-family:sans-serif;font-variant-ligatures:normal;font-variant-position:normal;font-variant-caps:normal;font-variant-numeric:normal;font-variant-alternates:normal;font-variant-east-asian:normal;font-feature-settings:normal;font-variation-settings:normal;text-indent:0;text-align:start;text-decoration:none;text-decoration-line:none;text-decoration-style:solid;text-decoration-color:#000000;letter-spacing:normal;word-spacing:normal;text-transform:none;writing-mode:lr-tb;direction:ltr;text-orientation:mixed;dominant-baseline:auto;baseline-shift:baseline;text-anchor:start;white-space:normal;shape-padding:0;shape-margin:0;inline-size:0;clip-rule:nonzero;display:inline;overflow:visible;visibility:visible;opacity:1;isolation:auto;mix-blend-mode:normal;color-interpolation:sRGB;color-interpolation-filters:linearRGB;solid-color:#000000;solid-opacity:1;vector-effect:none;fill:#000000;fill-opacity:1;fill-rule:nonzero;stroke:none;stroke-width:5.82083;stroke-linecap:butt;stroke-linejoin:miter;stroke-miterlimit:4;stroke-dasharray:none;stroke-dashoffset:0;stroke-opacity:1;color-rendering:auto;image-rendering:auto;shape-rendering:auto;text-rendering:auto;enable-background:accumulate;stop-color:#000000;stop-opacity:1"
       d="m -10.820247,2.1803467 0.0066,0.09926 c 0,0 0.329962,-0.00857 0.746111,0.00438 0.6251154,0.01946 1.4215124,0.021813 1.4758524,0.2224577 0.01052,0.038842 0.101499,-0.1858778 0.09582,-0.1589966 -0.0045,0.021468 0.02045,-0.308551 0.02045,-0.308551 2.56e-4,0.020034 -0.125459,-0.079146 -0.131977,-0.035544 -0.02633,0.1761069 -0.831127,0.1731932 -1.4620134,0.1983996 -0.413938,0.016538 -0.750816,0.017408 -0.750816,0.017408 z"
       id="path1465-1" />
    <path
       style="color:#000000;font-style:normal;font-variant:normal;font-weight:normal;font-stretch:normal;font-size:medium;line-height:normal;font-family:sans-serif;font-variant-ligatures:normal;font-variant-position:normal;font-variant-caps:normal;font-variant-numeric:normal;font-variant-alternates:normal;font-variant-east-asian:normal;font-feature-settings:normal;font-variation-settings:normal;text-indent:0;text-align:start;text-decoration:none;text-decoration-line:none;text-decoration-style:solid;text-decoration-color:#000000;letter-spacing:normal;word-spacing:normal;text-transform:none;writing-mode:lr-tb;direction:ltr;text-orientation:mixed;dominant-baseline:auto;baseline-shift:baseline;text-anchor:start;white-space:normal;shape-padding:0;shape-margin:0;inline-size:0;clip-rule:nonzero;display:inline;overflow:visible;visibility:visible;opacity:1;isolation:auto;mix-blend-mode:normal;color-interpolation:sRGB;color-interpolation-filters:linearRGB;solid-color:#000000;solid-opacity:1;vector-effect:none;fill:#000000;fill-opacity:1;fill-rule:nonzero;stroke:none;stroke-width:0.079375;stroke-linecap:butt;stroke-linejoin:miter;stroke-miterlimit:4;stroke-dasharray:none;stroke-dashoffset:0;stroke-opacity:1;color-rendering:auto;image-rendering:auto;shape-rendering:auto;text-rendering:auto;enable-background:accumulate;stop-color:#000000;stop-opacity:1"
       d="m -10.735328,0.92932162 -0.04302,0.03697 c 0,0 0.380464,-0.0084 0.77036,-0.0228 0.4318504,-0.0159 0.9292914,7.36e-4 1.1078374,0.14145898 0.02326,0.01833 0.02131,-0.08624 0.02131,-0.08624 v -0.08008 c 0,0 -0.08388,-0.16417 -0.150468,-0.144293 -0.06288,0.01877 -0.547723,0.05884 -0.9843714,0.092 -0.378414,0.02874 -0.721649,0.06298 -0.721649,0.06298 z"
       id="path1469-2" />
    <path
       id="path1469-6-7"
       d="m -10.7354,3.6206725 -0.04302,-0.036969 c 0,0 0.380464,0.00845 0.77036,0.022804 0.4318504,0.015896 0.9292914,-7.408e-4 1.1078374,-0.1414581 0.02326,-0.018328 0.02131,0.086238 0.02131,0.086238 v 0.080078 c 0,0 -0.08388,0.1641703 -0.150467,0.1442927 -0.06288,-0.01877 -0.547724,-0.058841 -0.9843724,-0.092002 -0.378414,-0.028739 -0.721649,-0.062983 -0.721649,-0.062983 z"
       style="color:#000000;font-style:normal;font-variant:normal;font-weight:normal;font-stretch:normal;font-size:medium;line-height:normal;font-family:sans-serif;font-variant-ligatures:normal;font-variant-position:normal;font-variant-caps:normal;font-variant-numeric:normal;font-variant-alternates:normal;font-variant-east-asian:normal;font-feature-settings:normal;font-variation-settings:normal;text-indent:0;text-align:start;text-decoration:none;text-decoration-line:none;text-decoration-style:solid;text-decoration-color:#000000;letter-spacing:normal;word-spacing:normal;text-transform:none;writing-mode:lr-tb;direction:ltr;text-orientation:mixed;dominant-baseline:auto;baseline-shift:baseline;text-anchor:start;white-space:normal;shape-padding:0;shape-margin:0;inline-size:0;clip-rule:nonzero;display:inline;overflow:visible;visibility:visible;opacity:1;isolation:auto;mix-blend-mode:normal;color-interpolation:sRGB;color-interpolation-filters:linearRGB;solid-color:#000000;solid-opacity:1;vector-effect:none;fill:#000000;fill-opacity:1;fill-rule:nonzero;stroke:none;stroke-width:0.079375;stroke-linecap:butt;stroke-linejoin:miter;stroke-miterlimit:4;stroke-dasharray:none;stroke-dashoffset:0;stroke-opacity:1;color-rendering:auto;image-rendering:auto;shape-rendering:auto;text-rendering:auto;enable-background:accumulate;stop-color:#000000;stop-opacity:1" />
    <path
       style="fill:none;stroke:#000000;stroke-width:0.15875;stroke-linecap:butt;stroke-linejoin:miter;stroke-miterlimit:4;stroke-dasharray:none;stroke-opacity:1"
       d="m -11.372729,0.05486462 c 0,0 0.117649,0.09779 0.251107,0.255776 0.155775,0.184408 0.334029,0.443851 0.386294,0.618681 0.123412,0.41282538 -0.07736,0.85902818 -0.08492,1.28983878 -0.008,0.4549914 0.148039,0.9220493 0.04183,1.3645432 -0.0921,0.383699 -0.642674,0.9901846 -0.642674,0.9901846"
       id="path1519-0" />
    <path
       id="path1525-2-9"
       style="color:#000000;font-style:normal;font-variant:normal;font-weight:normal;font-stretch:normal;font-size:medium;line-height:normal;font-family:sans-serif;font-variant-ligatures:normal;font-variant-position:normal;font-variant-caps:normal;font-variant-numeric:normal;font-variant-alternates:normal;font-variant-east-asian:normal;font-feature-settings:normal;font-variation-settings:normal;text-indent:0;text-align:start;text-decoration:none;text-decoration-line:none;text-decoration-style:solid;text-decoration-color:#000000;letter-spacing:normal;word-spacing:normal;text-transform:none;writing-mode:lr-tb;direction:ltr;text-orientation:mixed;dominant-baseline:auto;baseline-shift:baseline;text-anchor:start;white-space:normal;shape-padding:0;shape-margin:0;inline-size:0;clip-rule:nonzero;display:inline;overflow:visible;visibility:visible;opacity:1;isolation:auto;mix-blend-mode:normal;color-interpolation:sRGB;color-interpolation-filters:linearRGB;solid-color:#000000;solid-opacity:1;vector-effect:none;fill:#000000;fill-opacity:1;fill-rule:nonzero;stroke:none;stroke-width:0.275024px;stroke-linecap:butt;stroke-linejoin:miter;stroke-miterlimit:4;stroke-dasharray:none;stroke-dashoffset:0;stroke-opacity:1;color-rendering:auto;image-rendering:auto;shape-rendering:auto;text-rendering:auto;enable-background:accumulate;stop-color:#000000;stop-opacity:1"
       d="m -11.292455,-0.03614638 c -0.06109,4.44e-4 -0.115489,0.0043 -0.115489,0.0043 l -0.314773,-0.0027 c 0,0 0.221396,0.106737 0.384067,0.230439 0.151303,-0.05631 0.0022,-0.07875 0.07144,-0.07305 0.173774,-0.04674 0.870766,-0.02633 1.8225694,0.17189 0.04618,0.0079 0.08191,0.03078 0.04673,0.0043 -0.0088,-0.0066 0.02152,0.02343 0.05264,0.065 0.03113,0.04157 0.07046,0.09949 0.113877,0.168667 0.08684,0.138358 0.190495,0.322256 0.287915,0.52587498 0.194841,0.4072395 0.357923,0.9108523 0.338946,1.2376066 0.01898,0.3267539 -0.144105,0.830904 -0.338946,1.2381432 -0.09742,0.2036194 -0.201078,0.3875175 -0.287915,0.5258753 -0.04342,0.069178 -0.08276,0.1270989 -0.113877,0.1686668 -0.03112,0.041568 -0.06137,0.071597 -0.05264,0.064995 0.03518,-0.026484 -5.5e-4,-0.0041 -0.04673,0.00376 -0.9518034,0.1982219 -1.6108044,0.2453743 -1.8565604,0.1919203 -0.06926,0.0057 0.113854,-0.036239 -0.03745,-0.092546 -0.162671,0.1237023 -0.384066,0.2304394 -0.384066,0.2304394 l 0.314773,-0.00268 c 0,0 0.05439,0.00332 0.115488,0.00376 0.19086,0.0014 0.655304,0.00254 1.088278,-0.00806 0.2164874,-0.00529 0.4248334,-0.012951 0.5908714,-0.026321 0.08302,-0.00668 0.155557,-0.013986 0.215399,-0.024172 0.05984,-0.010186 0.09746,-0.00655 0.164369,-0.056939 0.04525,-0.034067 0.06992,-0.069675 0.107431,-0.119776 0.03752,-0.0501 0.08135,-0.112854 0.127843,-0.18693 0.09299,-0.1481613 0.200198,-0.3407108 0.302419,-0.5543547 0.203728,-0.4258154 0.367522,-0.885752 0.367414,-1.3530947 0,-8.969e-4 2e-6,-0.00179 0,-0.00268 v -0.00215 c 1.02e-4,-0.4673529 -0.163684,-0.927817 -0.367414,-1.35363718 -0.102216,-0.213644 -0.209431,-0.405656 -0.302419,-0.553807 -0.04649,-0.07408 -0.09033,-0.13683 -0.127843,-0.18693 -0.03752,-0.0501 -0.06218,-0.08571 -0.107431,-0.119786 -0.06691,-0.05039 -0.104531,-0.04675 -0.164369,-0.05694 -0.05984,-0.01019 -0.132379,-0.01749 -0.2154,-0.02417 -0.166041,-0.01337 -0.374384,-0.02103 -0.5908714,-0.02632 -0.432974,-0.01058 -0.897418,-0.01 -1.088277,-0.0086 z" />
  </g>
</svg>
